<svg width="325" height="99" viewBox="0 0 325 99" fill="none" xmlns="http://www.w3.org/2000/svg">
<path d="M26.6108 98.5909C21.7102 98.5909 17.508 97.9162 14.0043 96.5668C10.5241 95.241 7.75426 93.4299 5.6946 91.1335C3.63494 88.8371 2.29735 86.2566 1.68182 83.392L15.6733 81.5099C16.0994 82.599 16.7741 83.617 17.6974 84.5639C18.6207 85.5109 19.84 86.2685 21.3551 86.8366C22.8939 87.4285 24.7642 87.7244 26.9659 87.7244C30.2566 87.7244 32.9673 86.9195 35.098 85.3097C37.2524 83.7235 38.3295 81.0601 38.3295 77.3196V67.3409H37.6903C37.0275 68.8561 36.0331 70.2884 34.7074 71.6378C33.3816 72.9872 31.6771 74.0881 29.5938 74.9403C27.5104 75.7926 25.0246 76.2188 22.1364 76.2188C18.0407 76.2188 14.312 75.2718 10.9503 73.3778C7.61222 71.4602 4.94886 68.5365 2.96023 64.6065C0.995265 60.6529 0.0127844 55.6577 0.0127844 49.6207C0.0127844 43.4418 1.01894 38.2808 3.03125 34.1378C5.04356 29.9948 7.71875 26.8935 11.0568 24.8338C14.4186 22.7741 18.0999 21.7443 22.1009 21.7443C25.1548 21.7443 27.7116 22.2652 29.7713 23.3068C31.831 24.3248 33.4882 25.6032 34.7429 27.142C36.0213 28.6572 37.0038 30.1487 37.6903 31.6165H38.2585V22.4545H53.2798V77.5327C53.2798 82.1728 52.1435 86.0554 49.8707 89.1804C47.598 92.3054 44.4493 94.6491 40.4247 96.2116C36.4238 97.7978 31.8191 98.5909 26.6108 98.5909ZM26.9304 64.8551C29.3688 64.8551 31.4285 64.2514 33.1094 63.044C34.8139 61.813 36.116 60.0611 37.0156 57.7884C37.9389 55.492 38.4006 52.7457 38.4006 49.5497C38.4006 46.3537 37.9508 43.5838 37.0511 41.2401C36.1515 38.8726 34.8494 37.0379 33.1449 35.7358C31.4403 34.4337 29.3688 33.7827 26.9304 33.7827C24.4446 33.7827 22.3494 34.4574 20.6449 35.8068C18.9403 37.1326 17.6501 38.9792 16.7741 41.3466C15.8982 43.714 15.4602 46.4484 15.4602 49.5497C15.4602 52.6984 15.8982 55.4209 16.7741 57.7173C17.6738 59.9901 18.964 61.7538 20.6449 63.0085C22.3494 64.2396 24.4446 64.8551 26.9304 64.8551ZM80.8722 78.0298C77.392 78.0298 74.2907 77.4261 71.5682 76.2188C68.8456 74.9877 66.6913 73.1766 65.1051 70.7855C63.5426 68.3707 62.7614 65.3641 62.7614 61.7656C62.7614 58.7353 63.3177 56.1903 64.4304 54.1307C65.5431 52.071 67.0582 50.4138 68.9759 49.1591C70.8935 47.9044 73.0715 46.9574 75.5099 46.3182C77.9721 45.679 80.5526 45.2292 83.2514 44.9688C86.4238 44.6373 88.9806 44.3295 90.9219 44.0455C92.8632 43.7377 94.2718 43.2879 95.1477 42.696C96.0237 42.1042 96.4616 41.2282 96.4616 40.0682V39.8551C96.4616 37.6061 95.7514 35.866 94.331 34.6349C92.9342 33.4039 90.9455 32.7884 88.3651 32.7884C85.6425 32.7884 83.4763 33.392 81.8665 34.5994C80.2566 35.7831 79.1913 37.2746 78.6705 39.0739L64.679 37.9375C65.3892 34.6231 66.786 31.7585 68.8693 29.3438C70.9527 26.9053 73.6397 25.035 76.9304 23.733C80.2448 22.4072 84.08 21.7443 88.4361 21.7443C91.4664 21.7443 94.3665 22.0994 97.1364 22.8097C99.9299 23.5199 102.404 24.6207 104.558 26.1122C106.736 27.6037 108.453 29.5213 109.707 31.8651C110.962 34.1851 111.589 36.9669 111.589 40.2102V77H97.2429V69.4361H96.8168C95.9408 71.1406 94.7689 72.6439 93.3011 73.946C91.8333 75.2244 90.0696 76.2306 88.0099 76.9645C85.9503 77.6747 83.571 78.0298 80.8722 78.0298ZM85.2045 67.5895C87.4299 67.5895 89.3949 67.1515 91.0994 66.2756C92.804 65.3759 94.1416 64.1686 95.1122 62.6534C96.0829 61.1383 96.5682 59.4219 96.5682 57.5043V51.7159C96.0947 52.0237 95.4437 52.3078 94.6151 52.5682C93.8101 52.8049 92.8987 53.0298 91.8807 53.2429C90.8627 53.4323 89.8447 53.6098 88.8267 53.7756C87.8087 53.9176 86.8854 54.0478 86.0568 54.1662C84.2813 54.4266 82.7306 54.8409 81.4048 55.4091C80.0791 55.9773 79.0492 56.7467 78.3153 57.7173C77.5814 58.6643 77.2145 59.848 77.2145 61.2685C77.2145 63.3281 77.9602 64.9025 79.4517 65.9915C80.9669 67.0568 82.8845 67.5895 85.2045 67.5895ZM138.454 4.27273V77H123.326V4.27273H138.454ZM175.43 78.0653C169.819 78.0653 164.99 76.929 160.941 74.6562C156.917 72.3598 153.815 69.1165 151.637 64.9261C149.459 60.7121 148.37 55.7287 148.37 49.9759C148.37 44.3651 149.459 39.4408 151.637 35.2031C153.815 30.9654 156.881 27.6629 160.835 25.2955C164.812 22.928 169.476 21.7443 174.826 21.7443C178.425 21.7443 181.775 22.3243 184.876 23.4844C188.001 24.6207 190.724 26.3371 193.044 28.6335C195.387 30.9299 197.21 33.8182 198.512 37.2983C199.815 40.7547 200.466 44.803 200.466 49.4432V53.598H154.407V44.223H186.225C186.225 42.045 185.752 40.1155 184.805 38.4347C183.858 36.7538 182.544 35.4399 180.863 34.4929C179.206 33.5223 177.277 33.0369 175.075 33.0369C172.779 33.0369 170.743 33.5696 168.967 34.6349C167.215 35.6766 165.842 37.0852 164.848 38.8608C163.853 40.6127 163.344 42.5658 163.321 44.7202V53.6335C163.321 56.3324 163.818 58.6643 164.812 60.6293C165.83 62.5942 167.262 64.1094 169.109 65.1747C170.956 66.2401 173.145 66.7727 175.679 66.7727C177.359 66.7727 178.898 66.536 180.295 66.0625C181.692 65.589 182.887 64.8788 183.882 63.9318C184.876 62.9848 185.634 61.8248 186.154 60.4517L200.146 61.375C199.436 64.7367 197.98 67.6723 195.778 70.1818C193.6 72.6676 190.783 74.6089 187.326 76.0057C183.894 77.3788 179.928 78.0653 175.43 78.0653ZM210.338 77V22.4545H225.004V31.9716H225.572C226.566 28.5862 228.235 26.0294 230.579 24.3011C232.923 22.5492 235.622 21.6733 238.676 21.6733C239.433 21.6733 240.25 21.7206 241.126 21.8153C242.002 21.91 242.771 22.0402 243.434 22.206V35.6293C242.724 35.4162 241.742 35.2268 240.487 35.0611C239.232 34.8954 238.084 34.8125 237.042 34.8125C234.817 34.8125 232.828 35.2978 231.076 36.2685C229.348 37.2154 227.975 38.5412 226.957 40.2457C225.963 41.9503 225.466 43.9152 225.466 46.1406V77H210.338ZM251.256 77V22.4545H266.384V77H251.256ZM258.855 15.4233C256.606 15.4233 254.677 14.6776 253.067 13.1861C251.481 11.6709 250.688 9.85985 250.688 7.75284C250.688 5.6695 251.481 3.8821 253.067 2.39062C254.677 0.875471 256.606 0.117894 258.855 0.117894C261.104 0.117894 263.022 0.875471 264.608 2.39062C266.218 3.8821 267.023 5.6695 267.023 7.75284C267.023 9.85985 266.218 11.6709 264.608 13.1861C263.022 14.6776 261.104 15.4233 258.855 15.4233ZM294.056 78.0298C290.576 78.0298 287.474 77.4261 284.752 76.2188C282.029 74.9877 279.875 73.1766 278.289 70.7855C276.726 68.3707 275.945 65.3641 275.945 61.7656C275.945 58.7353 276.501 56.1903 277.614 54.1307C278.727 52.071 280.242 50.4138 282.159 49.1591C284.077 47.9044 286.255 46.9574 288.694 46.3182C291.156 45.679 293.736 45.2292 296.435 44.9688C299.607 44.6373 302.164 44.3295 304.105 44.0455C306.047 43.7377 307.455 43.2879 308.331 42.696C309.207 42.1042 309.645 41.2282 309.645 40.0682V39.8551C309.645 37.6061 308.935 35.866 307.515 34.6349C306.118 33.4039 304.129 32.7884 301.549 32.7884C298.826 32.7884 296.66 33.392 295.05 34.5994C293.44 35.7831 292.375 37.2746 291.854 39.0739L277.863 37.9375C278.573 34.6231 279.97 31.7585 282.053 29.3438C284.136 26.9053 286.823 25.035 290.114 23.733C293.428 22.4072 297.264 21.7443 301.62 21.7443C304.65 21.7443 307.55 22.0994 310.32 22.8097C313.114 23.5199 315.587 24.6207 317.742 26.1122C319.92 27.6037 321.636 29.5213 322.891 31.8651C324.146 34.1851 324.773 36.9669 324.773 40.2102V77H310.426V69.4361H310C309.124 71.1406 307.953 72.6439 306.485 73.946C305.017 75.2244 303.253 76.2306 301.194 76.9645C299.134 77.6747 296.755 78.0298 294.056 78.0298ZM298.388 67.5895C300.614 67.5895 302.578 67.1515 304.283 66.2756C305.988 65.3759 307.325 64.1686 308.296 62.6534C309.266 61.1383 309.752 59.4219 309.752 57.5043V51.7159C309.278 52.0237 308.627 52.3078 307.799 52.5682C306.994 52.8049 306.082 53.0298 305.064 53.2429C304.046 53.4323 303.028 53.6098 302.01 53.7756C300.992 53.9176 300.069 54.0478 299.24 54.1662C297.465 54.4266 295.914 54.8409 294.588 55.4091C293.263 55.9773 292.233 56.7467 291.499 57.7173C290.765 58.6643 290.398 59.848 290.398 61.2685C290.398 63.3281 291.144 64.9025 292.635 65.9915C294.15 67.0568 296.068 67.5895 298.388 67.5895Z" fill="#112433"/>
</svg>
