<svg width="300" height="300" viewBox="0 0 300 300" fill="none" xmlns="http://www.w3.org/2000/svg">
<path d="M185 132.5V180C185 182.652 183.946 185.196 182.071 187.071C180.196 188.946 177.652 190 175 190H170V185H175C176.326 185 177.598 184.473 178.536 183.536C179.473 182.598 180 181.326 180 180V132.5H170C168.011 132.5 166.103 131.71 164.697 130.303C163.29 128.897 162.5 126.989 162.5 125V115H135C133.674 115 132.402 115.527 131.464 116.464C130.527 117.402 130 118.674 130 120V165H125V120C125 117.348 126.054 114.804 127.929 112.929C129.804 111.054 132.348 110 135 110H162.5L185 132.5ZM123 169.25H115V189.245H118.955V182.535H122.97C124.405 182.535 125.625 182.25 126.63 181.67C127.645 181.085 128.42 180.295 128.945 179.3C129.49 178.256 129.767 177.093 129.75 175.915C129.75 174.665 129.485 173.535 128.96 172.53C128.438 171.531 127.639 170.703 126.66 170.145C125.66 169.545 124.445 169.25 123 169.25ZM125.725 175.915C125.743 176.574 125.597 177.227 125.3 177.815C125.034 178.327 124.619 178.747 124.11 179.02C123.528 179.308 122.884 179.449 122.235 179.43H118.94V172.4H122.24C123.33 172.4 124.185 172.7 124.8 173.305C125.415 173.915 125.725 174.785 125.725 175.915ZM131.81 169.25V189.245H139.11C141.115 189.245 142.78 188.845 144.1 188.06C145.436 187.261 146.479 186.053 147.075 184.615C147.725 183.115 148.055 181.305 148.055 179.195C148.055 177.095 147.73 175.305 147.075 173.82C146.486 172.399 145.453 171.206 144.13 170.42C142.81 169.64 141.135 169.25 139.105 169.25H131.81ZM135.765 172.475H138.58C139.82 172.475 140.83 172.725 141.625 173.235C142.45 173.775 143.073 174.573 143.395 175.505C143.79 176.51 143.985 177.765 143.985 179.27C144 180.267 143.886 181.262 143.645 182.23C143.467 182.993 143.133 183.712 142.665 184.34C142.23 184.901 141.654 185.336 140.995 185.6C140.223 185.889 139.404 186.028 138.58 186.01H135.765V172.475ZM154.48 181.29V189.245H150.53V169.25H163.27V172.515H154.48V178.1H162.51V181.29H154.48Z" fill="#00B1EF"/>
</svg>
