<svg width="500" height="500" viewBox="0 0 500 500" fill="none" xmlns="https://www.w3.org/2000/svg">
<path d="M284.503 158L321 195.649V299H180V158H284.503Z" stroke="#D7FFB7" stroke-width="2"/>
<path d="M221.642 333V311.182H229.014C230.726 311.182 232.125 311.491 233.212 312.109C234.305 312.719 235.115 313.547 235.641 314.591C236.166 315.635 236.429 316.8 236.429 318.085C236.429 319.371 236.166 320.539 235.641 321.59C235.122 322.641 234.32 323.479 233.233 324.104C232.146 324.722 230.754 325.031 229.057 325.031H223.773V322.688H228.972C230.143 322.688 231.085 322.485 231.795 322.08C232.505 321.675 233.02 321.129 233.339 320.44C233.666 319.744 233.83 318.959 233.83 318.085C233.83 317.212 233.666 316.43 233.339 315.741C233.02 315.053 232.501 314.513 231.784 314.122C231.067 313.724 230.115 313.526 228.929 313.526H224.284V333H221.642ZM247.418 333H240.685V311.182H247.716C249.833 311.182 251.644 311.619 253.15 312.492C254.655 313.359 255.809 314.605 256.612 316.232C257.414 317.851 257.816 319.79 257.816 322.048C257.816 324.321 257.411 326.278 256.601 327.918C255.792 329.552 254.613 330.809 253.064 331.69C251.516 332.563 249.634 333 247.418 333ZM243.327 330.656H247.248C249.051 330.656 250.547 330.308 251.733 329.612C252.919 328.916 253.803 327.925 254.385 326.64C254.968 325.354 255.259 323.824 255.259 322.048C255.259 320.287 254.971 318.771 254.396 317.499C253.821 316.221 252.961 315.241 251.818 314.559C250.674 313.87 249.25 313.526 247.546 313.526H243.327V330.656ZM262.248 333V311.182H275.33V313.526H264.89V320.898H274.35V323.241H264.89V333H262.248Z" fill="#D7FFB7"/>
<path d="M250.926 192.358C249.872 188.606 247.412 186.747 245.198 187.028C243.851 187.155 242.556 187.612 241.428 188.358C240.301 189.104 239.375 190.117 238.733 191.306C235.641 198.32 242.247 218.73 243.09 222.131C237.328 239.49 218.81 272.314 207.601 279.749C207.317 279.925 206.986 280.012 206.652 279.996C206.318 279.981 205.997 279.865 205.73 279.664C205.464 279.463 205.265 279.185 205.159 278.868C205.054 278.552 205.048 278.21 205.141 277.89C206.266 274.383 209.815 268.912 219.724 262.565C220.417 261.836 221.063 261.063 221.656 260.251C209.885 265.967 194.635 275.19 203.806 282.063C204.465 282.517 205.187 282.872 205.949 283.115C212.977 285.71 222.816 277.224 232.689 257.971C243.123 254.278 253.873 251.543 264.805 249.8C278.404 259.023 287.504 260.917 293.689 258.532C294.912 258.001 296.008 257.217 296.904 256.232C297.801 255.246 298.477 254.082 298.889 252.816C293.864 258.988 282.093 254.675 272.711 248.783C281.355 247.836 290.28 247.275 294.181 248.503C299.1 250.046 298.924 252.465 298.889 252.816C299.245 251.997 299.429 251.114 299.429 250.221C299.429 249.328 299.245 248.445 298.889 247.626C294.743 240.893 275.733 244.82 268.811 245.522C258.997 239.135 251.487 229.784 247.377 218.835C250.223 207.964 253.245 200.073 250.891 192.253M246.182 215.012C244.566 209.226 242.352 197.057 244.882 191.306C244.985 191.067 245.142 190.856 245.341 190.69C245.541 190.524 245.777 190.407 246.031 190.349C246.284 190.29 246.548 190.293 246.8 190.356C247.052 190.418 247.286 190.54 247.482 190.71C253.21 195.795 248.747 205.789 246.182 215.012ZM261.186 246.995C251.617 248.891 242.277 251.794 233.322 255.657C237.975 245.67 241.852 235.341 244.917 224.761C248.844 233.154 254.383 240.696 261.221 246.96" fill="#D7FFB7"/>
<line x1="284" y1="160.714" x2="284" y2="196" stroke="#D7FFB7" stroke-width="2"/>
<line x1="318.286" y1="195.143" x2="283" y2="195.143" stroke="#D7FFB7" stroke-width="2"/>
<path d="M180 298.286H321V341.714C321 342.267 320.552 342.714 320 342.714H181C180.448 342.714 180 342.267 180 341.714V298.286Z" stroke="#D7FFB7" stroke-width="2"/>
</svg>
